HIERARCHY
ROOT Root
{
  OFFSET 0.0 0.0 0.0
  CHANNELS 6 Xposition Yposition Zposition Zrotation Yrotation Xrotation
  JOINT Hips
  {
    OFFSET 0.0 100.0 0.0
    CHANNELS 6 Xposition Yposition Zposition Zrotation Yrotation Xrotation
    JOINT Spine1
    {
      OFFSET 5.003913 -0.037094 -0.013727
      CHANNELS 3 Zrotation Yrotation Xrotation
      JOINT Spine2
      {
        OFFSET 7.125363 -1e-06 0.0
        CHANNELS 3 Zrotation Yrotation Xrotation
        JOINT Chest
        {
          OFFSET 7.594027 1e-06 0.0
          CHANNELS 3 Zrotation Yrotation Xrotation
          JOINT Neck1
          {
            OFFSET 26.313086 -0.460272 -0.181672
            CHANNELS 3 Zrotation Yrotation Xrotation
            JOINT Neck2
            {
              OFFSET 8.045911 0.0 0.0
              CHANNELS 3 Zrotation Yrotation Xrotation
              JOINT Head
              {
                OFFSET 6.432774 0.0 0.0
                CHANNELS 3 Zrotation Yrotation Xrotation
                JOINT HeadEnd
                {
                  OFFSET 16.169773 0.06451 0.00362
                  CHANNELS 3 Zrotation Yrotation Xrotation
                }
                JOINT Jaw
                {
                  OFFSET 0.108741 3.12938 0.002639
                  CHANNELS 3 Zrotation Yrotation Xrotation
                }
                JOINT LeftEye
                {
                  OFFSET 4.45173 8.166359 3.206392
                  CHANNELS 3 Zrotation Yrotation Xrotation
                }
                JOINT RightEye
                {
                  OFFSET 4.436895 8.135758 -3.222429
                  CHANNELS 3 Zrotation Yrotation Xrotation
                }
              }
            }
          }
          JOINT LeftShoulder
          {
            OFFSET 23.218927 5.195579 1.621656
            CHANNELS 3 Zrotation Yrotation Xrotation
            JOINT LeftArm
            {
              OFFSET 15.902118 2e-06 -2e-06
              CHANNELS 3 Zrotation Yrotation Xrotation
              JOINT LeftForeArm
              {
                OFFSET 28.739307 0.0 -1e-06
                CHANNELS 3 Zrotation Yrotation Xrotation
                JOINT LeftHand
                {
                  OFFSET 27.093981 -4e-06 0.0
                  CHANNELS 3 Zrotation Yrotation Xrotation
                  JOINT LeftHandThumb1
                  {
                    OFFSET 2.276781 3.380274 0.83384
                    CHANNELS 3 Zrotation Yrotation Xrotation
                    JOINT LeftHandThumb2
                    {
                      OFFSET 4.705309 -1e-06 -1e-06
                      CHANNELS 3 Zrotation Yrotation Xrotation
                      JOINT LeftHandThumb3
                      {
                        OFFSET 2.798515 0.0 3e-06
                        CHANNELS 3 Zrotation Yrotation Xrotation
                        JOINT LeftHandThumbEnd
                        {
                          OFFSET 3.180793 4e-06 -4e-06
                          CHANNELS 3 Zrotation Yrotation Xrotation
                        }
                      }
                    }
                  }
                  JOINT LeftHandIndex1
                  {
                    OFFSET 3.247786 2.352677 0.137192
                    CHANNELS 3 Zrotation Yrotation Xrotation
                    JOINT LeftHandIndex2
                    {
                      OFFSET 6.367095 1e-06 0.0
                      CHANNELS 3 Zrotation Yrotation Xrotation
                      JOINT LeftHandIndex3
                      {
                        OFFSET 3.662364 0.0 0.0
                        CHANNELS 3 Zrotation Yrotation Xrotation
                        JOINT LeftHandIndex4
                        {
                          OFFSET 2.329242 4e-06 -4e-06
                          CHANNELS 3 Zrotation Yrotation Xrotation
                          JOINT LeftHandIndexEnd
                          {
                            OFFSET 2.767823 1e-06 0.0
                            CHANNELS 3 Zrotation Yrotation Xrotation
                          }
                        }
                      }
                    }
                  }
                  JOINT LeftHandMiddle1
                  {
                    OFFSET 3.163612 0.945023 -0.406112
                    CHANNELS 3 Zrotation Yrotation Xrotation
                    JOINT LeftHandMiddle2
                    {
                      OFFSET 6.276789 3e-06 0.0
                      CHANNELS 3 Zrotation Yrotation Xrotation
                      JOINT LeftHandMiddle3
                      {
                        OFFSET 4.35652 -1e-06 4e-06
                        CHANNELS 3 Zrotation Yrotation Xrotation
                        JOINT LeftHandMiddle4
                        {
                          OFFSET 2.996877 0.0 8e-06
                          CHANNELS 3 Zrotation Yrotation Xrotation
                          JOINT LeftHandMiddleEnd
                          {
                            OFFSET 2.323256 3e-06 -4e-06
                            CHANNELS 3 Zrotation Yrotation Xrotation
                          }
                        }
                      }
                    }
                  }
                  JOINT LeftHandRing1
                  {
                    OFFSET 2.882606 -0.309162 0.107445
                    CHANNELS 3 Zrotation Yrotation Xrotation
                    JOINT LeftHandRing2
                    {
                      OFFSET 6.033198 0.0 4e-06
                      CHANNELS 3 Zrotation Yrotation Xrotation
                      JOINT LeftHandRing3
                      {
                        OFFSET 4.350578 3e-06 0.0
                        CHANNELS 3 Zrotation Yrotation Xrotation
                        JOINT LeftHandRing4
                        {
                          OFFSET 2.651321 2e-06 -7e-06
                          CHANNELS 3 Zrotation Yrotation Xrotation
                          JOINT LeftHandRingEnd
                          {
                            OFFSET 1.937663 1e-06 -4e-06
                            CHANNELS 3 Zrotation Yrotation Xrotation
                          }
                        }
                      }
                    }
                  }
                  JOINT LeftHandPinky1
                  {
                    OFFSET 2.865315 -1.525436 0.575687
                    CHANNELS 3 Zrotation Yrotation Xrotation
                    JOINT LeftHandPinky2
                    {
                      OFFSET 5.54936 1e-06 -8e-06
                      CHANNELS 3 Zrotation Yrotation Xrotation
                      JOINT LeftHandPinky3
                      {
                        OFFSET 3.070974 0.0 -4e-06
                        CHANNELS 3 Zrotation Yrotation Xrotation
                        JOINT LeftHandPinky4
                        {
                          OFFSET 1.549672 1e-06 0.0
                          CHANNELS 3 Zrotation Yrotation Xrotation
                          JOINT LeftHandPinkyEnd
                          {
                            OFFSET 1.952123 0.0 0.0
                            CHANNELS 3 Zrotation Yrotation Xrotation
                          }
                        }
                      }
                    }
                  }
                }
              }
            }
          }
          JOINT RightShoulder
          {
            OFFSET 23.161716 5.296122 -1.380114
            CHANNELS 3 Zrotation Yrotation Xrotation
            JOINT RightArm
            {
              OFFSET -16.027195 -2e-06 1.1e-05
              CHANNELS 3 Zrotation Yrotation Xrotation
              JOINT RightForeArm
              {
                OFFSET -28.736639 4e-06 2e-06
                CHANNELS 3 Zrotation Yrotation Xrotation
                JOINT RightHand
                {
                  OFFSET -27.133619 6e-06 0.0
                  CHANNELS 3 Zrotation Yrotation Xrotation
                  JOINT RightHandThumb1
                  {
                    OFFSET -2.274328 -3.351035 -0.83067
                    CHANNELS 3 Zrotation Yrotation Xrotation
                    JOINT RightHandThumb2
                    {
                      OFFSET -4.703594 -3e-06 2e-06
                      CHANNELS 3 Zrotation Yrotation Xrotation
                      JOINT RightHandThumb3
                      {
                        OFFSET -2.794935 -4e-06 -3e-06
                        CHANNELS 3 Zrotation Yrotation Xrotation
                        JOINT RightHandThumbEnd
                        {
                          OFFSET -3.183852 4e-06 1e-06
                          CHANNELS 3 Zrotation Yrotation Xrotation
                        }
                      }
                    }
                  }
                  JOINT RightHandIndex1
                  {
                    OFFSET -3.253496 -2.33755 -0.127667
                    CHANNELS 3 Zrotation Yrotation Xrotation
                    JOINT RightHandIndex2
                    {
                      OFFSET -6.344434 0.0 0.0
                      CHANNELS 3 Zrotation Yrotation Xrotation
                      JOINT RightHandIndex3
                      {
                        OFFSET -3.654871 0.0 -8e-06
                        CHANNELS 3 Zrotation Yrotation Xrotation
                        JOINT RightHandIndex4
                        {
                          OFFSET -2.327586 -1e-06 0.0
                          CHANNELS 3 Zrotation Yrotation Xrotation
                          JOINT RightHandIndexEnd
                          {
                            OFFSET -2.770001 3e-06 8e-06
                            CHANNELS 3 Zrotation Yrotation Xrotation
                          }
                        }
                      }
                    }
                  }
                  JOINT RightHandMiddle1
                  {
                    OFFSET -3.168223 -0.944764 0.411762
                    CHANNELS 3 Zrotation Yrotation Xrotation
                    JOINT RightHandMiddle2
                    {
                      OFFSET -6.266691 -1e-06 -4e-06
                      CHANNELS 3 Zrotation Yrotation Xrotation
                      JOINT RightHandMiddle3
                      {
                        OFFSET -4.348901 0.0 0.0
                        CHANNELS 3 Zrotation Yrotation Xrotation
                        JOINT RightHandMiddle4
                        {
                          OFFSET -3.00024 2e-06 -4e-06
                          CHANNELS 3 Zrotation Yrotation Xrotation
                          JOINT RightHandMiddleEnd
                          {
                            OFFSET -2.321477 -4e-06 -4e-06
                            CHANNELS 3 Zrotation Yrotation Xrotation
                          }
                        }
                      }
                    }
                  }
                  JOINT RightHandRing1
                  {
                    OFFSET -2.885654 0.293261 -0.119232
                    CHANNELS 3 Zrotation Yrotation Xrotation
                    JOINT RightHandRing2
                    {
                      OFFSET -6.032835 -1e-06 -4e-06
                      CHANNELS 3 Zrotation Yrotation Xrotation
                      JOINT RightHandRing3
                      {
                        OFFSET -4.33881 0.0 -4e-06
                        CHANNELS 3 Zrotation Yrotation Xrotation
                        JOINT RightHandRing4
                        {
                          OFFSET -2.654903 -4e-06 -4e-06
                          CHANNELS 3 Zrotation Yrotation Xrotation
                          JOINT RightHandRingEnd
                          {
                            OFFSET -1.935122 0.0 4e-06
                            CHANNELS 3 Zrotation Yrotation Xrotation
                          }
                        }
                      }
                    }
                  }
                  JOINT RightHandPinky1
                  {
                    OFFSET -2.866241 1.503904 -0.60527
                    CHANNELS 3 Zrotation Yrotation Xrotation
                    JOINT RightHandPinky2
                    {
                      OFFSET -5.553177 -2e-06 0.0
                      CHANNELS 3 Zrotation Yrotation Xrotation
                      JOINT RightHandPinky3
                      {
                        OFFSET -3.062664 -1e-06 -4e-06
                        CHANNELS 3 Zrotation Yrotation Xrotation
                        JOINT RightHandPinky4
                        {
                          OFFSET -1.546529 2e-06 4e-06
                          CHANNELS 3 Zrotation Yrotation Xrotation
                          JOINT RightHandPinkyEnd
                          {
                            OFFSET -1.952341 0.0 -4e-06
                            CHANNELS 3 Zrotation Yrotation Xrotation
                          }
                        }
                      }
                    }
                  }
                }
              }
            }
          }
        }
      }
    }
    JOINT LeftLeg
    {
      OFFSET -8.443107 2.567604 10.043214
      CHANNELS 3 Zrotation Yrotation Xrotation
      JOINT LeftShin
      {
        OFFSET 43.229198 1e-06 -1e-06
        CHANNELS 3 Zrotation Yrotation Xrotation
        JOINT LeftFoot
        {
          OFFSET 42.298611 1e-06 1e-06
          CHANNELS 3 Zrotation Yrotation Xrotation
          JOINT LeftToeBase
          {
            OFFSET 14.165858 1e-06 0.0
            CHANNELS 3 Zrotation Yrotation Xrotation
            JOINT LeftToeEnd
            {
              OFFSET 6.7141 -0.234461 0.0
              CHANNELS 3 Zrotation Yrotation Xrotation
            }
          }
        }
      }
    }
    JOINT RightLeg
    {
      OFFSET -8.303923 2.592729 -10.047278
      CHANNELS 3 Zrotation Yrotation Xrotation
      JOINT RightShin
      {
        OFFSET -43.369682 0.0 1e-06
        CHANNELS 3 Zrotation Yrotation Xrotation
        JOINT RightFoot
        {
          OFFSET -42.260784 4e-06 2e-06
          CHANNELS 3 Zrotation Yrotation Xrotation
          JOINT RightToeBase
          {
            OFFSET -14.222245 -2e-06 -1e-06
            CHANNELS 3 Zrotation Yrotation Xrotation
            JOINT RightToeEnd
            {
              OFFSET -6.660062 0.232574 -2e-06
              CHANNELS 3 Zrotation Yrotation Xrotation
            }
          }
        }
      }
    }
  }
}
MOTION
Frames: 4
Frame Time: 0.03333333333333333
0.0 0.0 0.0 0.0 -0.0 0.0 1.531154 99.919281 3.470216 91.577858 2.367874 90.176483 -2.380973 0.465896 0.074562 -11.688546 -0.232558 0.068232 16.680155 -0.644674 -1.976608 27.319031 -4.078324 2.531378 -2.529811 -0.682818 -0.335106 -30.60214 -0.819841 0.42188 6e-06 0.0 0.0 0.023321 0.029071 0.001722 0.052686 0.049392 0.002372 0.089033 0.001464 0.006529 -151.628906 -63.101864 168.868958 22.803604 -43.502167 19.68615 28.987583 -0.106762 0.121115 1.638406 3.509114 3.696499 17.636625 -26.322729 52.411182 -19.466652 -14.395594 29.410378 -1e-06 -8.774818 -4e-06 16.10202 -18.189402 5.9252 -0.609776 -1.795653 -3.889327 -4.807086 -11.046804 -2.93785 5e-06 -20.976006 -1e-06 -5.019969 -25.033545 -4.031877 6e-06 -1e-06 1e-06 -10.634529 -5.686967 -3.565588 10.573271 -17.922945 -3.1139 3e-06 -13.821203 0.0 -0.501779 -31.181498 -4.027013 -10.919121 -59.524437 6.568584 -13.982708 -7.150194 -2.875044 13.772727 -8.401489 -3.218241 0.347736 -34.211536 0.771655 -0.963028 -17.733368 2.621021 0.0 -1e-06 1e-06 -17.346409 -20.095209 -4.201783 21.757551 -1.638377 3.866426 1e-06 -6.338821 1e-06 -1.697588 -22.591736 -6.194004 1e-06 -7e-06 -2e-06 35.117516 -75.053238 160.762253 39.163277 -53.177864 15.280409 21.090956 -0.608488 -0.091315 3.062952 -1.856231 18.586542 22.182114 -20.375898 49.933311 -16.701811 -16.743525 28.476526 -3e-06 -12.690598 -0.0 16.304688 -17.819696 2.722341 -0.105919 -1.513855 -4.275878 -5.03904 -5.612872 -2.953557 4e-06 -11.020525 -0.0 -6.111297 -15.895334 -3.840472 0.0 1e-06 0.0 -10.283365 -5.680285 -4.341839 11.028291 -11.302406 -2.37263 -1.384268 -14.23858 -6.320123 -0.625438 -26.924187 -3.827597 -4.75356 -50.498249 -3.619069 -13.70852 -7.363473 -3.720938 18.141146 -14.052739 -3.242671 9e-06 -18.78727 -4e-06 -0.429712 -8.456043 2.555504 -0.0 0.0 -1e-06 -15.92353 -20.094481 -5.473584 30.419205 -7.190827 1.735926 0.0 -8.162924 -1e-06 -1.861901 -22.861467 -6.167941 -1e-06 -5e-06 -2e-06 -179.360275 -2.982191 -11.393423 10.939315 -0.007515 0.099855 -76.940933 -5.479987 -8.838907 -5.645215 1.436045 2.07407 -0.999999 1e-06 -0.0 -0.437071 -6.899852 -5.064194 14.899021 -0.038766 0.012548 -80.293297 -3.000873 -7.777568 -5.20327 0.729246 1.699566 -1.0 -0.0 0.0 
0.0 0.0 0.0 0.0 -0.0 0.0 1.57596 99.949982 3.477273 91.612427 2.360744 90.132469 -2.359908 0.424107 0.062196 -11.662776 -0.215308 0.088319 16.680639 -0.644191 -1.986485 27.232874 -4.030335 2.527977 -2.526828 -0.655122 -0.341492 -30.590574 -0.842448 0.430013 6e-06 0.0 0.0 0.025211 0.026705 0.012755 0.06491 0.049408 0.015294 0.097748 -0.003046 0.015582 -151.650879 -63.186684 169.029221 22.821234 -43.494114 19.605188 28.976231 -0.158215 0.089482 1.807078 3.695482 4.027257 17.636627 -26.322731 52.411182 -19.466652 -14.395596 29.410378 -1e-06 -8.774819 -1e-06 16.084967 -18.158218 5.900941 -0.609775 -1.795652 -3.889324 -4.807087 -11.046811 -2.93785 4e-06 -20.976015 0.0 -5.01997 -25.033556 -4.031878 7e-06 3e-06 -1e-06 -10.634533 -5.686968 -3.565587 10.573271 -17.922949 -3.113898 4e-06 -13.821206 -1e-06 -0.501778 -31.181505 -4.027013 -10.865486 -59.47718 6.57787 -13.982712 -7.150196 -2.87504 13.77273 -8.401492 -3.218241 0.347737 -34.211552 0.771655 -0.963028 -17.73337 2.62102 -1e-06 0.0 -0.0 -17.346415 -20.095213 -4.201781 21.757555 -1.638376 3.86643 1e-06 -6.338823 2e-06 -1.697589 -22.591743 -6.194005 -1e-06 -3e-06 -1e-06 35.066521 -75.019714 160.903091 38.868614 -53.19228 15.408977 21.08861 -0.644364 -0.095432 3.065091 -1.862118 18.825169 22.182114 -20.375895 49.933319 -16.701813 -16.743528 28.476524 -3e-06 -12.690599 -1e-06 16.273754 -17.789053 2.702293 -0.105919 -1.513855 -4.275881 -5.039041 -5.612873 -2.953556 4e-06 -11.020525 -1e-06 -6.111297 -15.895332 -3.840471 -0.0 -1e-06 -1e-06 -10.283369 -5.680287 -4.341839 11.028293 -11.302406 -2.372633 -1.384269 -14.23858 -6.32012 -0.625437 -26.924192 -3.8276 -4.78625 -50.518711 -3.575534 -13.708522 -7.363475 -3.720941 18.141146 -14.05274 -3.242674 9e-06 -18.78727 -6e-06 -0.429711 -8.456045 2.555502 0.0 0.0 -1e-06 -15.923532 -20.094482 -5.473587 30.419207 -7.190827 1.735924 1e-06 -8.162922 -1e-06 -1.861898 -22.861469 -6.167942 -1e-06 -6e-06 -3e-06 -179.123947 -2.848802 -11.419612 10.492202 0.005658 0.140582 -76.74958 -5.492486 -8.913423 -5.691307 1.456681 2.08047 -0.999999 1e-06 -0.0 -0.305918 -6.952847 -5.00839 14.604302 -0.032759 0.014567 -80.140854 -3.001435 -7.786297 -5.249662 0.715962 1.697342 -1.000003 0.0 -0.0 
0.0 0.0 0.0 0.0 -0.0 0.0 1.630639 99.959999 3.474416 91.646713 2.358336 90.077522 -2.339566 0.384493 0.055553 -11.651397 -0.208777 0.093626 16.728048 -0.632249 -1.972743 27.131865 -3.976487 2.529091 -2.545489 -0.623329 -0.371553 -30.545866 -0.857013 0.427692 6e-06 0.0 0.0 0.026852 0.026457 0.016712 0.058774 0.049135 0.021658 0.093717 -0.003453 0.016756 -151.735336 -63.296272 169.203278 22.800079 -43.478943 19.686495 28.998899 -0.19879 0.057334 1.868963 3.910853 4.150729 17.636629 -26.322725 52.411194 -19.46665 -14.395596 29.410378 1e-06 -8.774821 -1e-06 16.081343 -18.178621 5.889893 -0.609778 -1.795654 -3.88933 -4.80709 -11.046808 -2.937849 0.0 -20.976011 1e-06 -5.019976 -25.033552 -4.031876 6e-06 2e-06 -1e-06 -10.634533 -5.686971 -3.565587 10.573271 -17.922945 -3.113899 2e-06 -13.821206 2e-06 -0.501778 -31.181501 -4.027015 -10.887109 -59.444511 6.564819 -13.982712 -7.150198 -2.875041 13.772726 -8.401489 -3.21824 0.347729 -34.211544 0.771652 -0.963031 -17.733368 2.621018 -1e-06 -1e-06 -0.0 -17.346422 -20.095217 -4.201782 21.757557 -1.638372 3.866429 0.0 -6.338823 2e-06 -1.697593 -22.591743 -6.194006 1e-06 -4e-06 -2e-06 34.907467 -74.992653 161.106506 38.509434 -53.192375 15.639574 21.138956 -0.678058 -0.095883 3.015375 -1.760756 19.03845 22.182121 -20.375889 49.9333 -16.701811 -16.743526 28.476524 -1e-06 -12.6906 -2e-06 16.249319 -17.739403 2.687033 -0.10592 -1.513857 -4.275878 -5.039042 -5.612872 -2.953557 3e-06 -11.020525 -0.0 -6.1113 -15.895334 -3.840472 0.0 -1e-06 -1e-06 -10.283371 -5.68029 -4.341839 11.028292 -11.302406 -2.372631 -1.38427 -14.238583 -6.320124 -0.625439 -26.924191 -3.827603 -4.800904 -50.493069 -3.573887 -13.708526 -7.363479 -3.720936 18.141146 -14.052738 -3.242671 6e-06 -18.78727 -6e-06 -0.429714 -8.456041 2.555505 1e-06 0.0 -0.0 -15.923538 -20.09449 -5.473582 30.41921 -7.190823 1.735928 1e-06 -8.162926 -3e-06 -1.861903 -22.861471 -6.167945 -0.0 -6e-06 -1e-06 -179.029465 -2.748206 -11.462533 10.317304 0.006755 0.165509 -76.682739 -5.499461 -8.947317 -5.688835 1.467143 2.086344 -0.999999 0.0 0.0 -0.28458 -7.029895 -4.973457 14.525603 -0.022214 0.013785 -80.086731 -2.978791 -7.820817 -5.240552 0.712506 1.698817 -1.000003 0.0 -0.0 
0.0 0.0 0.0 0.0 -0.0 0.0 1.691634 99.960175 3.46018 91.668472 2.355634 90.010712 -2.312542 0.343373 0.049551 -11.650869 -0.198924 0.098155 16.788271 -0.615772 -1.932245 27.019527 -3.913821 2.511569 -2.560669 -0.612816 -0.363716 -30.528036 -0.849984 0.384981 6e-06 0.0 0.0 0.028391 0.026485 0.020616 0.050046 0.047845 0.028212 0.087655 -0.002294 0.017713 -151.817932 -63.419891 169.356476 22.846462 -43.453968 19.860794 28.953783 -0.220615 0.036538 1.893942 4.229051 4.213707 17.636629 -26.322729 52.41119 -19.46666 -14.395597 29.410385 -1e-06 -8.774821 -1e-06 16.069412 -18.19092 5.892009 -0.609774 -1.795653 -3.889325 -4.807088 -11.046809 -2.93785 4e-06 -20.976015 -1e-06 -5.019971 -25.033556 -4.031879 8e-06 2e-06 0.0 -10.634533 -5.68697 -3.565588 10.573271 -17.922949 -3.113902 2e-06 -13.821208 2e-06 -0.501776 -31.181501 -4.027014 -10.895348 -59.429443 6.553899 -13.982714 -7.150198 -2.875044 13.772729 -8.401491 -3.218241 0.347736 -34.211555 0.771651 -0.963028 -17.733372 2.621018 -1e-06 -0.0 1e-06 -17.346416 -20.095215 -4.201782 21.757557 -1.638375 3.866431 1e-06 -6.338822 -0.0 -1.697591 -22.59174 -6.194005 0.0 -5e-06 -1e-06 34.663639 -74.979507 161.385101 38.168442 -53.192047 16.064808 21.187172 -0.65566 -0.088081 2.954074 -1.633466 19.218472 22.182108 -20.375895 49.933319 -16.701809 -16.743526 28.476532 -3e-06 -12.690598 0.0 16.221079 -17.695175 2.696295 -0.105919 -1.513856 -4.275881 -5.039039 -5.61287 -2.953556 4e-06 -11.020523 -1e-06 -6.111296 -15.89533 -3.840471 0.0 -0.0 -1e-06 -10.283369 -5.680288 -4.341839 11.028294 -11.302404 -2.372633 -1.384268 -14.238581 -6.320124 -0.625439 -26.924187 -3.8276 -4.826213 -50.447487 -3.55089 -13.708522 -7.363475 -3.720942 18.141148 -14.052739 -3.242672 8e-06 -18.787266 -4e-06 -0.429714 -8.456045 2.555504 1e-06 0.0 -0.0 -15.923532 -20.094481 -5.473588 30.419207 -7.190826 1.735927 1e-06 -8.162925 -1e-06 -1.861902 -22.861465 -6.167938 -0.0 -3e-06 -1e-06 -179.023743 -2.683311 -11.533031 10.300545 0.003949 0.173866 -76.684975 -5.514688 -8.957107 -5.706151 1.473507 2.087132 -0.999999 -0.0 0.0 -0.319326 -7.105554 -4.97596 14.538961 -0.016403 0.010515 -80.067711 -2.918756 -7.860919 -5.246566 0.707696 1.698649 -1.000002 -1e-06 -0.0 
